<?xml version="1.0" encoding="UTF-8" standalone="no"?>
<!-- Uploaded to: SVG Repo, www.svgrepo.com, Generator: SVG Repo Mixer Tools -->

<svg
   width="800px"
   height="800px"
   viewBox="0 0 24 24"
   fill="none"
   version="1.1"
   id="svg1"
   sodipodi:docname="close_hover.svg"
   inkscape:version="1.3 (0e150ed6c4, 2023-07-21)"
   xmlns:inkscape="http://www.inkscape.org/namespaces/inkscape"
   xmlns:sodipodi="http://sodipodi.sourceforge.net/DTD/sodipodi-0.dtd"
   xmlns="http://www.w3.org/2000/svg"
   xmlns:svg="http://www.w3.org/2000/svg">
  <defs
     id="defs1" />
  <sodipodi:namedview
     id="namedview1"
     pagecolor="#ffffff"
     bordercolor="#666666"
     borderopacity="1.0"
     inkscape:showpageshadow="2"
     inkscape:pageopacity="0.0"
     inkscape:pagecheckerboard="0"
     inkscape:deskcolor="#d1d1d1"
     inkscape:zoom="0.295"
     inkscape:cx="401.69492"
     inkscape:cy="403.38983"
     inkscape:window-width="1436"
     inkscape:window-height="466"
     inkscape:window-x="240"
     inkscape:window-y="305"
     inkscape:window-maximized="1"
     inkscape:current-layer="svg1" />
  <path
     d="m 5.1875357,5.1990343 c -0.531711,0.531711 -0.531711,1.3937655 0,1.9254764 l 4.8812083,4.8811813 -4.8812083,4.88129 c -0.531711,0.53167 -0.531711,1.393779 0,1.925449 0.5316974,0.53167 1.3937654,0.53167 1.9254628,0 l 4.8811945,-4.88129 4.88129,4.88129 c 0.53167,0.53167 1.393779,0.53167 1.92545,0 0.531669,-0.53167 0.531669,-1.393779 0,-1.925449 l -4.881291,-4.88129 4.881291,-4.8811677 c 0.531669,-0.5316973 0.531669,-1.3937654 0,-1.9254628 -0.531807,-0.5317109 -1.39378,-0.5317109 -1.92545,0 L 11.994193,10.080243 7.1129985,5.1990343 c -0.5316974,-0.5316973 -1.3937654,-0.5316973 -1.9254628,0 z"
     fill="#0F0F0F"
     id="path1"
     style="fill:#616161;fill-opacity:1;stroke-width:1.36151" />
</svg>
