<?xml version="1.0" encoding="UTF-8" standalone="no"?>
<!-- Uploaded to: SVG Repo, www.svgrepo.com, Generator: SVG Repo Mixer Tools -->

<svg
   width="800px"
   height="800px"
   viewBox="0 0 24 24"
   fill="none"
   version="1.1"
   id="svg1"
   sodipodi:docname="count.svg"
   inkscape:version="1.3 (0e150ed6c4, 2023-07-21)"
   xmlns:inkscape="http://www.inkscape.org/namespaces/inkscape"
   xmlns:sodipodi="http://sodipodi.sourceforge.net/DTD/sodipodi-0.dtd"
   xmlns="http://www.w3.org/2000/svg"
   xmlns:svg="http://www.w3.org/2000/svg">
  <defs
     id="defs1" />
  <sodipodi:namedview
     id="namedview1"
     pagecolor="#ffffff"
     bordercolor="#666666"
     borderopacity="1.0"
     inkscape:showpageshadow="2"
     inkscape:pageopacity="0.0"
     inkscape:pagecheckerboard="0"
     inkscape:deskcolor="#d1d1d1"
     inkscape:zoom="0.295"
     inkscape:cx="398.30508"
     inkscape:cy="400"
     inkscape:window-width="1436"
     inkscape:window-height="466"
     inkscape:window-x="240"
     inkscape:window-y="305"
     inkscape:window-maximized="1"
     inkscape:current-layer="svg1" />
  <path
     d="M3 9.5H21M3 14.5H21M8 4.5V19.5M6.2 19.5H17.8C18.9201 19.5 19.4802 19.5 19.908 19.282C20.2843 19.0903 20.5903 18.7843 20.782 18.408C21 17.9802 21 17.4201 21 16.3V7.7C21 6.5799 21 6.01984 20.782 5.59202C20.5903 5.21569 20.2843 4.90973 19.908 4.71799C19.4802 4.5 18.9201 4.5 17.8 4.5H6.2C5.0799 4.5 4.51984 4.5 4.09202 4.71799C3.71569 4.90973 3.40973 5.21569 3.21799 5.59202C3 6.01984 3 6.57989 3 7.7V16.3C3 17.4201 3 17.9802 3.21799 18.408C3.40973 18.7843 3.71569 19.0903 4.09202 19.282C4.51984 19.5 5.07989 19.5 6.2 19.5Z"
     stroke="#000000"
     stroke-width="2"
     id="path1"
     style="stroke:#e0e0e0;stroke-opacity:1" />
</svg>
