<?xml version="1.0" encoding="UTF-8" standalone="no"?>
<!-- Uploaded to: SVG Repo, www.svgrepo.com, Generator: SVG Repo Mixer Tools -->

<svg
   width="800px"
   height="800px"
   viewBox="0 0 32 32"
   fill="none"
   version="1.1"
   id="svg1"
   sodipodi:docname="settings.svg"
   inkscape:version="1.3 (0e150ed6c4, 2023-07-21)"
   xmlns:inkscape="http://www.inkscape.org/namespaces/inkscape"
   xmlns:sodipodi="http://sodipodi.sourceforge.net/DTD/sodipodi-0.dtd"
   xmlns="http://www.w3.org/2000/svg"
   xmlns:svg="http://www.w3.org/2000/svg">
  <defs
     id="defs1" />
  <sodipodi:namedview
     id="namedview1"
     pagecolor="#ffffff"
     bordercolor="#666666"
     borderopacity="1.0"
     inkscape:showpageshadow="2"
     inkscape:pageopacity="0.0"
     inkscape:pagecheckerboard="0"
     inkscape:deskcolor="#d1d1d1"
     inkscape:zoom="2.8"
     inkscape:cx="511.25"
     inkscape:cy="545.35714"
     inkscape:window-width="1543"
     inkscape:window-height="808"
     inkscape:window-x="169"
     inkscape:window-y="154"
     inkscape:window-maximized="1"
     inkscape:current-layer="svg1" />
  <path
     stroke="#535358"
     stroke-linejoin="round"
     stroke-width="2"
     d="M13.905 3.379A.5.5 0 0114.39 3h3.22a.5.5 0 01.485.379l.689 2.757a.515.515 0 00.341.362c.383.126.755.274 1.115.443a.515.515 0 00.449-.003l2.767-1.383a.5.5 0 01.577.093l2.319 2.319a.5.5 0 01.093.577l-1.383 2.767a.515.515 0 00-.003.449c.127.271.243.549.346.833.053.148.17.265.319.315l2.934.978a.5.5 0 01.342.474v3.28a.5.5 0 01-.342.474l-2.934.978a.515.515 0 00-.32.315 9.937 9.937 0 01-.345.833.515.515 0 00.003.449l1.383 2.767a.5.5 0 01-.093.577l-2.319 2.319a.5.5 0 01-.577.093l-2.767-1.383a.515.515 0 00-.449-.003c-.271.127-.549.243-.833.346a.515.515 0 00-.315.319l-.978 2.934a.5.5 0 01-.474.342h-3.28a.5.5 0 01-.474-.342l-.978-2.934a.515.515 0 00-.315-.32 9.95 9.95 0 01-1.101-.475.515.515 0 00-.498.014l-2.437 1.463a.5.5 0 01-.611-.075l-2.277-2.277a.5.5 0 01-.075-.61l1.463-2.438a.515.515 0 00.014-.498 9.938 9.938 0 01-.573-1.383.515.515 0 00-.362-.341l-2.757-.69A.5.5 0 013 17.61v-3.22a.5.5 0 01.379-.485l2.757-.689a.515.515 0 00.362-.341c.157-.478.35-.94.573-1.383a.515.515 0 00-.014-.498L5.594 8.557a.5.5 0 01.075-.611l2.277-2.277a.5.5 0 01.61-.075l2.438 1.463c.152.091.34.094.498.014a9.938 9.938 0 011.382-.573.515.515 0 00.342-.362l.69-2.757z"
     id="path1"
     style="stroke:#e0e0e0;stroke-opacity:1" />
  <circle
     cx="16"
     cy="16"
     r="6.0889893"
     stroke="#535358"
     stroke-linecap="round"
     stroke-linejoin="round"
     stroke-width="2.4356"
     id="circle1"
     style="stroke:#e0e0e0;stroke-opacity:1" />
  <path
     style="fill:#ffffff;fill-rule:evenodd;stroke:#e0e0e0;stroke-width:57.7614;stroke-linecap:square;stroke-opacity:1"
     d="m 357.44606,665.94481 c -11.34269,-34.13184 -16.01766,-43.92158 -23.52802,-49.26942 -2.35335,-1.67575 -12.87621,-6.69345 -23.38414,-11.15045 -20.421,-8.66171 -29.45297,-10.45924 -39.27067,-7.81561 -3.22147,0.86746 -18.22679,8.96986 -33.34516,18.00536 -15.11837,9.0355 -27.91446,16.42817 -28.43577,16.42817 -1.21421,0 -41.62516,-40.44625 -41.62516,-41.66152 0,-0.5013 7.39268,-13.28104 16.42817,-28.39941 9.0355,-15.11837 17.13791,-30.12369 18.00536,-33.34516 2.627,-9.75593 0.91544,-18.89648 -7.1197,-38.02248 -12.56776,-29.91499 -13.44502,-31.55273 -19.98482,-37.30929 -7.17036,-6.31161 -11.81113,-7.92661 -49.11472,-17.09209 l -25.35714,-6.23024 V 400.00424 369.9258 l 28.21428,-6.9495 c 15.51786,-3.82223 31.56209,-8.18084 35.65386,-9.6858 10.54185,-3.8773 18.47154,-13.18716 24.22634,-28.4429 2.48768,-6.59476 6.8152,-17.45474 9.61672,-24.13331 5.35314,-12.76145 6.32363,-20.70278 3.68912,-30.1874 -0.79249,-2.85308 -8.82462,-17.54202 -17.84918,-32.64209 -9.02456,-15.10007 -16.40829,-27.88119 -16.40829,-28.4025 0,-1.29253 40.48714,-41.62516 41.78463,-41.62516 0.56902,0 13.3484,7.39258 28.39861,16.42796 15.05022,9.03538 30.00013,17.13779 33.22205,18.00536 9.75676,2.62722 18.89686,0.91582 38.02328,-7.11949 29.91499,-12.56776 31.55273,-13.44502 37.30929,-19.98482 6.31161,-7.17036 7.92661,-11.81113 17.09209,-49.11472 l 6.23024,-25.35714 h 30.07843 30.07844 l 6.9495,28.21428 c 3.82223,15.51786 8.18456,31.57204 9.69406,35.67596 4.31854,11.74088 12.3292,17.78569 36.13938,27.27062 17.27579,6.88191 21.30093,7.96709 29.55086,7.96689 9.31493,-2.3e-4 10.38914,-0.41494 43.48501,-16.7876 l 33.93415,-16.78737 21.9937,21.99369 21.99368,21.99369 -15.01733,30.00865 c -16.76104,33.49307 -20.24188,43.18767 -18.77452,52.28954 1.24477,7.7213 11.24422,32.9615 15.85625,40.02373 5.64682,8.64674 14.53633,13.06252 50.06587,24.86969 l 33.3409,11.07983 V 400 431.47411 l -33.3409,11.07983 c -18.3375,6.09392 -36.30562,12.96002 -39.9292,15.25802 -8.21137,5.20748 -12.05194,11.03648 -19.79597,30.04518 -5.11215,12.54843 -6.10687,16.56097 -6.08618,24.55086 0.0241,9.2957 0.47323,10.45744 16.81211,43.48501 l 16.78736,33.93415 -21.99369,21.9937 -21.9937,21.99368 -30.00864,-15.01733 c -34.0902,-17.05987 -42.90149,-20.17602 -52.83697,-18.68611 -7.71117,1.15636 -34.3531,11.96089 -40.78302,16.53939 -7.54732,5.37418 -12.20681,15.12191 -23.56297,49.29432 l -11.07983,33.3409 H 400 368.52589 Z m 77.08605,-85.97815 c 56.462,-11.34487 103.48555,-47.01252 128.96903,-97.8238 13.97462,-27.86383 19.09073,-49.87727 19.09073,-82.14286 0,-32.92579 -5.18176,-54.7036 -19.88478,-83.57143 -25.54916,-50.16306 -70.99775,-84.34449 -128.42138,-96.58442 -15.76095,-3.35948 -52.81047,-3.35948 -68.57142,0 -75.4552,16.08339 -129.78675,70.41494 -145.87014,145.87014 -3.35948,15.76095 -3.35948,52.81047 0,68.57142 5.9473,27.90175 18.12754,55.0438 34.39135,76.6366 29.16217,38.71742 75.07933,64.98529 124.52227,71.23559 13.31439,1.68313 42.12552,0.55121 55.77434,-2.19124 z"
     id="path11"
     transform="scale(0.04)" />
  <path
     style="fill:#ffffff;fill-rule:evenodd;stroke:#e0e0e0;stroke-width:57.7614;stroke-linecap:square;stroke-opacity:1"
     d="m 611.42857,400 c 0,-17.67857 0.0702,-32.14286 0.15596,-32.14286 0.0858,0 4.9072,2.16806 10.71428,4.81791 5.80708,2.64985 18.75476,7.52453 28.77262,10.83261 l 18.21428,6.01469 v 10.41063 10.41064 L 647.5,417.83444 c -11.98214,4.11995 -24.81791,9.02478 -28.52394,10.89962 -3.70602,1.87484 -6.92031,3.4088 -7.14285,3.4088 -0.22255,0 -0.40464,-14.46429 -0.40464,-32.14286 z"
     id="path12"
     transform="scale(0.04)" />
  <path
     style="fill:#ffffff;fill-rule:evenodd;stroke:#e0e0e0;stroke-width:57.7614;stroke-linecap:square;stroke-opacity:1"
     d="m 565,266.18833 c -6.54704,-8.69481 -21.4254,-23.62758 -32.65098,-32.77036 l -6.22241,-5.0679 9.07955,-3.2927 c 4.99376,-1.81099 18.01796,-7.76156 28.94267,-13.22349 l 19.86312,-9.93078 7.04295,7.04296 7.04295,7.04295 -9.16372,18.43407 c -5.04004,10.13873 -10.61638,22.29121 -12.39186,27.00549 -1.77548,4.71429 -3.6524,9.63474 -4.17092,10.93434 -0.73367,1.83881 -2.36866,0.46926 -7.37135,-6.17458 z"
     id="path13"
     transform="scale(0.04)" />
  <path
     style="fill:#ffffff;fill-rule:evenodd;stroke:#e0e0e0;stroke-width:57.7614;stroke-linecap:square;stroke-opacity:1"
     d="m 378.48344,179.26889 c 2.45197,-5.1164 6.67895,-18.13426 9.39329,-28.92858 l 4.93517,-19.62602 7.16548,0.004 7.16548,0.004 5.39906,21.01711 c 2.96948,11.55941 7.17715,24.57538 9.35037,28.92438 l 3.95131,7.90727 h -25.90914 -25.90914 z"
     id="path14"
     transform="scale(0.04)" />
  <path
     style="fill:#ffffff;fill-rule:evenodd;stroke:#e0e0e0;stroke-width:57.7614;stroke-linecap:square;stroke-opacity:1"
     d="m 231.24687,265.36446 c -2.96846,-9.1668 -6.28526,-16.0073 -15.65029,-32.27682 C 209.76846,222.96265 205,214.22831 205,213.67799 205,212.31686 212.7279,205 214.16549,205 c 0.6336,0 6.38414,3.14137 12.77897,6.98081 13.15124,7.89598 27.943,15.49235 34.7679,17.85519 2.53001,0.87591 4.59456,2.0433 4.58787,2.59418 -0.007,0.55089 -7.71374,8.75061 -17.12679,18.22161 -13.46854,13.55145 -17.28761,16.68583 -17.92657,14.71267 z"
     id="path15"
     transform="scale(0.04)" />
  <path
     style="fill:#ffffff;fill-rule:evenodd;stroke:#e0e0e0;stroke-width:57.7614;stroke-linecap:square;stroke-opacity:1"
     d="m 178.88359,421.4574 c -5.32831,-2.61677 -18.34616,-6.88393 -28.92857,-9.48259 l -19.24073,-4.72483 v -7.27238 -7.27238 l 13.91903,-3.35556 c 18.04422,-4.35004 34.26143,-9.64458 39.65239,-12.94558 l 4.28572,-2.62423 v 26.32436 26.21766 c 0,-0.0587 -4.35953,-2.2477 -9.68784,-4.86447 z"
     id="path16"
     transform="scale(0.04)" />
  <path
     style="fill:#ffffff;fill-rule:evenodd;stroke:#e0e0e0;stroke-width:40.8435;stroke-linecap:square;stroke-opacity:1"
     d="m 208.80682,591.15354 c -2.33801,-2.38226 -4.25093,-4.64979 -4.25093,-5.03895 0,-0.38916 2.77809,-5.37221 6.17353,-11.07344 9.89741,-16.61859 17.78621,-32.12374 19.64247,-38.6066 l 1.72299,-6.01736 4.14691,5.00721 c 7.07822,8.54664 16.9692,18.56898 25.15917,25.4933 7.86841,6.65246 8.46392,8.24983 3.08975,8.28779 -2.60185,0.0184 -24.86837,11.31033 -39.56154,20.06272 -5.74,3.41919 -10.75926,6.21672 -11.15389,6.21672 -0.39464,0 -2.63044,-1.94913 -4.96846,-4.33139 z"
     id="path19"
     transform="scale(0.04)" />
  <path
     style="fill:#ffffff;fill-rule:evenodd;stroke:#e0e0e0;stroke-width:40.8435;stroke-linecap:square;stroke-opacity:1"
     d="m 388.46285,665.94307 c -2.90241,-9.8056 -13.7438,-39.23035 -17.30661,-46.9721 -2.10939,-4.58357 -3.47607,-8.33376 -3.03706,-8.33376 0.439,0 6.65079,0.47525 13.80396,1.0561 12.18429,0.9894 42.94366,-0.028 49.33349,-1.63173 2.06237,-0.51762 1.91997,0.0636 -2.04414,8.34338 -3.89737,8.14037 -12.69516,31.7591 -17.14316,46.02288 l -1.81127,5.80837 H 399.99583 389.7336 Z"
     id="path20"
     transform="scale(0.04)" />
  <path
     style="fill:#ffffff;fill-rule:evenodd;stroke:#e0e0e0;stroke-width:40.8435;stroke-linecap:square;stroke-opacity:1"
     d="m 563.09397,588.00394 c -11.42582,-5.65042 -24.66014,-11.59287 -29.4096,-13.20544 l -8.63539,-2.93194 8.19639,-6.58443 c 10.46365,-8.40578 23.62861,-21.57015 32.03074,-32.0293 l 6.57841,-8.18894 1.85157,6.46524 c 1.01836,3.55589 6.78977,16.49039 12.82535,28.74333 6.03559,12.25294 10.97379,22.81402 10.97379,23.46906 0,0.65504 -3.06834,4.1936 -6.81853,7.86346 l -6.81853,6.67247 z"
     id="path21"
     transform="scale(0.04)" />
  <path
     style="fill:#ffffff;fill-rule:evenodd;stroke:#e0e0e0;stroke-width:10.2109;stroke-linecap:square;stroke-opacity:1"
     d="m 565.0791,566.15803 -1.36395,-0.62244 0.84952,-0.87648 0.84952,-0.87648 0.35689,0.68115 c 0.64248,1.22622 1.06138,2.35848 0.86475,2.33738 -0.10603,-0.0114 -0.80656,-0.30079 -1.55673,-0.64313 z"
     id="path22"
     transform="scale(0.04)" />
  <path
     style="fill:#ffffff;fill-rule:evenodd;stroke:#e0e0e0;stroke-width:2.55272;stroke-linecap:square;stroke-opacity:1"
     d="m 189.24577,427.63154 c -0.22571,-0.16929 -0.70869,-0.51324 -1.07329,-0.76435 l -0.66291,-0.45655 1.00324,-0.0174 c 0.55178,-0.01 1.01082,-0.01 1.02009,0 0.0293,0.0303 0.17094,1.50619 0.14653,1.52662 -0.0128,0.0107 -0.20796,-0.119 -0.43366,-0.28829 z"
     id="path23"
     transform="scale(0.04)" />
</svg>
