<?xml version="1.0" encoding="UTF-8" standalone="no"?>
<!-- Uploaded to: SVG Repo, www.svgrepo.com, Generator: SVG Repo Mixer Tools -->

<svg
   fill="#000000"
   width="800px"
   height="800px"
   viewBox="0 0 24 24"
   id="sound-min"
   data-name="Flat Color"
   class="icon flat-color"
   version="1.1"
   sodipodi:docname="sound_on.svg"
   inkscape:version="1.3 (0e150ed6c4, 2023-07-21)"
   xmlns:inkscape="http://www.inkscape.org/namespaces/inkscape"
   xmlns:sodipodi="http://sodipodi.sourceforge.net/DTD/sodipodi-0.dtd"
   xmlns="http://www.w3.org/2000/svg"
   xmlns:svg="http://www.w3.org/2000/svg">
  <defs
     id="defs1" />
  <sodipodi:namedview
     id="namedview1"
     pagecolor="#ffffff"
     bordercolor="#666666"
     borderopacity="1.0"
     inkscape:showpageshadow="2"
     inkscape:pageopacity="0.0"
     inkscape:pagecheckerboard="0"
     inkscape:deskcolor="#d1d1d1"
     inkscape:zoom="0.43375"
     inkscape:cx="398.84726"
     inkscape:cy="398.84726"
     inkscape:window-width="952"
     inkscape:window-height="1026"
     inkscape:window-x="961"
     inkscape:window-y="25"
     inkscape:window-maximized="1"
     inkscape:current-layer="sound-min" />
  <path
     id="secondary"
     d="M17.54,16.54a1,1,0,0,1-.71-.3,1,1,0,0,1,0-1.41,4,4,0,0,0,0-5.66,1,1,0,1,1,1.41-1.41,6,6,0,0,1,0,8.48A1,1,0,0,1,17.54,16.54Z"
     style="fill:#e0e0e0;fill-opacity:1" />
  <path
     id="primary"
     d="M13.38,4.08a1,1,0,0,0-1.09.21L8.59,8H6a2,2,0,0,0-2,2v4a2,2,0,0,0,2,2H8.59l3.7,3.71A1,1,0,0,0,13,20a.84.84,0,0,0,.38-.08A1,1,0,0,0,14,19V5A1,1,0,0,0,13.38,4.08Z"
     style="fill:#e0e0e0;fill-opacity:1" />
</svg>
