<?xml version="1.0" encoding="UTF-8" standalone="no"?>
<!-- Uploaded to: SVG Repo, www.svgrepo.com, Generator: SVG Repo Mixer Tools -->

<svg
   fill="#000000"
   width="800px"
   height="800px"
   viewBox="0 0 24 24"
   id="sound-mute-alt"
   data-name="Flat Color"
   class="icon flat-color"
   version="1.1"
   sodipodi:docname="sound_off.svg"
   inkscape:version="1.3 (0e150ed6c4, 2023-07-21)"
   xmlns:inkscape="http://www.inkscape.org/namespaces/inkscape"
   xmlns:sodipodi="http://sodipodi.sourceforge.net/DTD/sodipodi-0.dtd"
   xmlns="http://www.w3.org/2000/svg"
   xmlns:svg="http://www.w3.org/2000/svg">
  <defs
     id="defs1" />
  <sodipodi:namedview
     id="namedview1"
     pagecolor="#ffffff"
     bordercolor="#666666"
     borderopacity="1.0"
     inkscape:showpageshadow="2"
     inkscape:pageopacity="0.0"
     inkscape:pagecheckerboard="0"
     inkscape:deskcolor="#d1d1d1"
     inkscape:zoom="0.35"
     inkscape:cx="400"
     inkscape:cy="400"
     inkscape:window-width="952"
     inkscape:window-height="1026"
     inkscape:window-x="961"
     inkscape:window-y="25"
     inkscape:window-maximized="1"
     inkscape:current-layer="sound-mute-alt" />
  <path
     id="secondary"
     d="M19.91,12l1.8-1.79a1,1,0,0,0-1.42-1.42l-1.79,1.8-1.79-1.8a1,1,0,0,0-1.42,1.42L17.09,12l-1.8,1.79a1,1,0,0,0,0,1.42,1,1,0,0,0,1.42,0l1.79-1.8,1.79,1.8a1,1,0,0,0,1.42,0,1,1,0,0,0,0-1.42Z"
     style="fill:#e0e0e0;fill-opacity:1" />
  <path
     id="primary"
     d="M11.38,4.08a1,1,0,0,0-1.09.21L6.59,8H4a2,2,0,0,0-2,2v4a2,2,0,0,0,2,2H6.59l3.7,3.71A1,1,0,0,0,11,20a.84.84,0,0,0,.38-.08A1,1,0,0,0,12,19V5A1,1,0,0,0,11.38,4.08Z"
     style="fill:#e0e0e0;fill-opacity:1" />
</svg>
