<?xml version="1.0" encoding="UTF-8" standalone="no"?>
<!-- Uploaded to: SVG Repo, www.svgrepo.com, Generator: SVG Repo Mixer Tools -->

<svg
   width="4000"
   height="800"
   viewBox="0 0 120 24"
   fill="none"
   version="1.1"
   id="svg1"
   sodipodi:docname="star-filled-bar.svg"
   inkscape:version="1.3 (0e150ed6c4, 2023-07-21)"
   xmlns:inkscape="http://www.inkscape.org/namespaces/inkscape"
   xmlns:sodipodi="http://sodipodi.sourceforge.net/DTD/sodipodi-0.dtd"
   xmlns="http://www.w3.org/2000/svg"
   xmlns:svg="http://www.w3.org/2000/svg">
  <defs
     id="defs1" />
  <sodipodi:namedview
     id="namedview1"
     pagecolor="#ffffff"
     bordercolor="#666666"
     borderopacity="1.0"
     inkscape:showpageshadow="2"
     inkscape:pageopacity="0.0"
     inkscape:pagecheckerboard="0"
     inkscape:deskcolor="#d1d1d1"
     inkscape:zoom="0.59"
     inkscape:cx="3577.9661"
     inkscape:cy="505.9322"
     inkscape:window-width="1707"
     inkscape:window-height="743"
     inkscape:window-x="75"
     inkscape:window-y="234"
     inkscape:window-maximized="1"
     inkscape:current-layer="svg1" />
  <path
     d="m 11.2691,4.41115 c 0.2315,-0.51938 0.3473,-0.77907 0.5085,-0.85904 0.14,-0.06948 0.3044,-0.06948 0.4444,0 0.1612,0.07997 0.277,0.33966 0.5085,0.85904 l 1.844,4.13693 c 0.0685,0.15354 0.1027,0.23031 0.1557,0.2891 0.0468,0.05202 0.1041,0.09363 0.168,0.12211 0.0723,0.0322 0.1559,0.04102 0.3231,0.05866 l 4.5043,0.47541 c 0.5655,0.05968 0.8482,0.08952 0.9741,0.21811 0.1093,0.11169 0.1601,0.26809 0.1373,0.42273 -0.0262,0.178 -0.2374,0.3683 -0.6598,0.749 l -3.3647,3.0322 c -0.1248,0.1125 -0.1873,0.1688 -0.2268,0.2373 -0.035,0.0607 -0.0569,0.128 -0.0642,0.1976 -0.0083,0.0787 0.0091,0.1609 0.044,0.3254 l 0.9398,4.4307 c 0.118,0.5563 0.177,0.8344 0.0936,0.9938 -0.0725,0.1386 -0.2055,0.2352 -0.3596,0.2613 -0.1774,0.03 -0.4237,-0.112 -0.9163,-0.3961 l -3.9235,-2.263 c -0.1456,-0.084 -0.2184,-0.1259 -0.2958,-0.1424 -0.0685,-0.0145 -0.1393,-0.0145 -0.2078,0 -0.0774,0.0165 -0.1502,0.0584 -0.2958,0.1424 l -3.92348,2.263 C 7.18404,20.2495 6.93775,20.3915 6.76034,20.3615 6.60623,20.3354 6.47319,20.2388 6.40075,20.1002 6.31736,19.9408 6.37635,19.6627 6.49434,19.1064 L 7.4341,14.6757 C 7.46898,14.5112 7.48642,14.429 7.47814,14.3503 7.47081,14.2807 7.44894,14.2134 7.41394,14.1527 7.37439,14.0842 7.31195,14.0279 7.18708,13.9154 L 3.82246,10.8832 C 3.40005,10.5025 3.18884,10.3122 3.16258,10.1342 3.13978,9.97956 3.19059,9.82316 3.29993,9.71147 3.42581,9.58288 3.70856,9.55304 4.27406,9.49336 L 8.77835,9.01795 C 8.94553,9.00031 9.02911,8.99149 9.10139,8.95929 9.16534,8.93081 9.2226,8.8892 9.26946,8.83718 9.32241,8.77839 9.35663,8.70162 9.42508,8.54808 Z"
     stroke="#000000"
     stroke-width="2"
     stroke-linecap="round"
     stroke-linejoin="round"
     id="path1"
     style="stroke:#e0e0e0;stroke-opacity:1" />
  <path
     d="m 107.2691,4.4111618 c 0.2315,-0.51938 0.3473,-0.77907 0.5085,-0.85904 0.14,-0.06948 0.3044,-0.06948 0.4444,0 0.1612,0.07997 0.277,0.33966 0.5085,0.85904 l 1.844,4.1369302 c 0.0685,0.15354 0.1027,0.23031 0.1557,0.2891 0.0468,0.05202 0.1041,0.09363 0.168,0.12211 0.0723,0.0322 0.1559,0.04102 0.3231,0.05866 l 4.5043,0.47541 c 0.5655,0.05968 0.8482,0.08952 0.9741,0.21811 0.1093,0.11169 0.1601,0.26809 0.1373,0.42273 -0.0262,0.178 -0.2374,0.3683 -0.6598,0.749 l -3.3647,3.0322 c -0.1248,0.1125 -0.1873,0.1688 -0.2268,0.2373 -0.035,0.0607 -0.0569,0.128 -0.0642,0.1976 -0.008,0.0787 0.009,0.1609 0.044,0.3254 l 0.9398,4.4307 c 0.118,0.5563 0.177,0.8344 0.0936,0.9938 -0.0725,0.1386 -0.2055,0.2352 -0.3596,0.2613 -0.1774,0.03 -0.4237,-0.112 -0.9163,-0.3961 l -3.9235,-2.263 c -0.1456,-0.084 -0.2184,-0.1259 -0.2958,-0.1424 -0.0685,-0.0145 -0.1393,-0.0145 -0.2078,0 -0.0774,0.0165 -0.1502,0.0584 -0.2958,0.1424 l -3.92348,2.263 c -0.49258,0.2841 -0.73887,0.4261 -0.91628,0.3961 -0.15411,-0.0261 -0.28715,-0.1227 -0.35959,-0.2613 -0.0834,-0.1594 -0.0244,-0.4375 0.0936,-0.9938 l 0.93976,-4.4307 c 0.0349,-0.1645 0.0523,-0.2467 0.044,-0.3254 -0.007,-0.0696 -0.0292,-0.1369 -0.0642,-0.1976 -0.0395,-0.0685 -0.10199,-0.1248 -0.22686,-0.2373 l -3.364616,-3.0322 c -0.42241,-0.3807 -0.63362,-0.571 -0.65988,-0.749 -0.0228,-0.15464 0.02801,-0.31104 0.13735,-0.42273 0.12588,-0.12859 0.40863,-0.15843 0.974126,-0.21811 l 4.50429,-0.47541 c 0.16718,-0.01764 0.25076,-0.02646 0.32304,-0.05866 0.064,-0.02848 0.12121,-0.07009 0.16807,-0.12211 0.053,-0.05879 0.0872,-0.13556 0.15562,-0.2891 z"
     stroke="#000000"
     stroke-width="2"
     stroke-linecap="round"
     stroke-linejoin="round"
     id="path1-1"
     style="stroke:#e0e0e0;stroke-opacity:1" />
  <path
     d="m 35.269104,4.4111618 c 0.2315,-0.51938 0.3473,-0.77907 0.5085,-0.85904 0.14,-0.06948 0.3044,-0.06948 0.4444,0 0.1612,0.07997 0.277,0.33966 0.5085,0.85904 l 1.844,4.1369302 c 0.0685,0.15354 0.1027,0.23031 0.1557,0.2891 0.0468,0.05202 0.1041,0.09363 0.168,0.12211 0.0723,0.0322 0.1559,0.04102 0.3231,0.05866 l 4.5043,0.47541 c 0.5655,0.05968 0.8482,0.08952 0.9741,0.21811 0.1093,0.11169 0.1601,0.26809 0.1373,0.42273 -0.0262,0.178 -0.2374,0.3683 -0.6598,0.749 l -3.3647,3.0322 c -0.1248,0.1125 -0.1873,0.1688 -0.2268,0.2373 -0.035,0.0607 -0.0569,0.128 -0.0642,0.1976 -0.0083,0.0787 0.0091,0.1609 0.044,0.3254 l 0.9398,4.4307 c 0.118,0.5563 0.177,0.8344 0.0936,0.9938 -0.0725,0.1386 -0.2055,0.2352 -0.3596,0.2613 -0.1774,0.03 -0.4237,-0.112 -0.9163,-0.3961 l -3.9235,-2.263 c -0.1456,-0.084 -0.2184,-0.1259 -0.2958,-0.1424 -0.0685,-0.0145 -0.1393,-0.0145 -0.2078,0 -0.0774,0.0165 -0.1502,0.0584 -0.2958,0.1424 l -3.92348,2.263 c -0.49258,0.2841 -0.73887,0.4261 -0.91628,0.3961 -0.15411,-0.0261 -0.28715,-0.1227 -0.35959,-0.2613 -0.08339,-0.1594 -0.0244,-0.4375 0.09359,-0.9938 l 0.93976,-4.4307 c 0.03488,-0.1645 0.05232,-0.2467 0.04404,-0.3254 -0.0073,-0.0696 -0.0292,-0.1369 -0.0642,-0.1976 -0.03955,-0.0685 -0.10199,-0.1248 -0.22686,-0.2373 l -3.36462,-3.0322 c -0.42241,-0.3807 -0.63362,-0.571 -0.65988,-0.749 -0.0228,-0.15464 0.02801,-0.31104 0.13735,-0.42273 0.12588,-0.12859 0.40863,-0.15843 0.97413,-0.21811 l 4.50429,-0.47541 c 0.16718,-0.01764 0.25076,-0.02646 0.32304,-0.05866 0.06395,-0.02848 0.12121,-0.07009 0.16807,-0.12211 0.05295,-0.05879 0.08717,-0.13556 0.15562,-0.2891 z"
     stroke="#000000"
     stroke-width="2"
     stroke-linecap="round"
     stroke-linejoin="round"
     id="path1-7"
     style="stroke:#e0e0e0;stroke-opacity:1" />
  <path
     d="m 59.269105,4.4111618 c 0.2315,-0.51938 0.3473,-0.77907 0.5085,-0.85904 0.14,-0.06948 0.3044,-0.06948 0.4444,0 0.1612,0.07997 0.277,0.33966 0.5085,0.85904 l 1.844,4.1369299 c 0.0685,0.15354 0.1027,0.23031 0.1557,0.2891 0.0468,0.05202 0.1041,0.09363 0.168,0.12211 0.0723,0.0322 0.1559,0.04102 0.3231,0.05866 l 4.5043,0.47541 c 0.5655,0.05968 0.8482,0.08952 0.9741,0.21811 0.1093,0.11169 0.1601,0.26809 0.1373,0.4227293 -0.0262,0.178 -0.2374,0.3683 -0.6598,0.749 l -3.3647,3.0322 c -0.1248,0.1125 -0.1873,0.1688 -0.2268,0.2373 -0.035,0.0607 -0.0569,0.128 -0.0642,0.1976 -0.0083,0.0787 0.0091,0.1609 0.044,0.3254 l 0.9398,4.430701 c 0.118,0.5563 0.177,0.8344 0.0936,0.9938 -0.0725,0.1386 -0.2055,0.2352 -0.3596,0.2613 -0.1774,0.03 -0.4237,-0.112 -0.9163,-0.3961 l -3.9235,-2.263 c -0.1456,-0.084 -0.2184,-0.1259 -0.2958,-0.1424 -0.0685,-0.0145 -0.1393,-0.0145 -0.2078,0 -0.0774,0.0165 -0.1502,0.0584 -0.2958,0.1424 l -3.923481,2.263 c -0.49258,0.2841 -0.73887,0.4261 -0.91628,0.3961 -0.15411,-0.0261 -0.28715,-0.1227 -0.35959,-0.2613 -0.08339,-0.1594 -0.0244,-0.4375 0.09359,-0.9938 l 0.93976,-4.430701 c 0.03488,-0.1645 0.05232,-0.2467 0.04404,-0.3254 -0.0073,-0.0696 -0.0292,-0.1369 -0.0642,-0.1976 -0.03955,-0.0685 -0.10199,-0.1248 -0.22686,-0.2373 l -3.36462,-3.0322 c -0.42241,-0.3807 -0.63362,-0.571 -0.65988,-0.749 -0.0228,-0.1546393 0.02801,-0.3110393 0.13735,-0.4227293 0.12588,-0.12859 0.40863,-0.15843 0.97413,-0.21811 l 4.50429,-0.47541 c 0.16718,-0.01764 0.25076,-0.02646 0.32304,-0.05866 0.06395,-0.02848 0.12121,-0.07009 0.16807,-0.12211 0.05295,-0.05879 0.08717,-0.13556 0.15562,-0.2891 z"
     stroke="#000000"
     stroke-width="2"
     stroke-linecap="round"
     stroke-linejoin="round"
     id="path1-6"
     style="stroke:#e0e0e0;stroke-opacity:1" />
  <path
     d="m 83.269104,4.4111618 c 0.2315,-0.51938 0.3473,-0.77907 0.5085,-0.85904 0.14,-0.06948 0.3044,-0.06948 0.4444,0 0.1612,0.07997 0.277,0.33966 0.5085,0.85904 l 1.844,4.1369305 c 0.0685,0.15354 0.1027,0.23031 0.1557,0.2891 0.0468,0.05202 0.1041,0.09363 0.168,0.12211 0.0723,0.0322 0.1559,0.04102 0.3231,0.05866 l 4.5043,0.47541 c 0.5655,0.05968 0.8482,0.08952 0.9741,0.21811 0.1093,0.11169 0.1601,0.26809 0.1373,0.4227287 -0.0262,0.178 -0.2374,0.3683 -0.6598,0.749 l -3.3647,3.0322 c -0.1248,0.1125 -0.1873,0.1688 -0.2268,0.2373 -0.035,0.0607 -0.0569,0.128 -0.0642,0.1976 -0.0083,0.0787 0.0091,0.1609 0.044,0.3254 l 0.9398,4.430701 c 0.118,0.5563 0.177,0.8344 0.0936,0.9938 -0.0725,0.1386 -0.2055,0.2352 -0.3596,0.2613 -0.1774,0.03 -0.4237,-0.112 -0.9163,-0.3961 l -3.9235,-2.263 c -0.1456,-0.084 -0.2184,-0.1259 -0.2958,-0.1424 -0.0685,-0.0145 -0.1393,-0.0145 -0.2078,0 -0.0774,0.0165 -0.1502,0.0584 -0.2958,0.1424 l -3.92348,2.263 c -0.49258,0.2841 -0.73887,0.4261 -0.91628,0.3961 -0.15411,-0.0261 -0.28715,-0.1227 -0.35959,-0.2613 -0.08339,-0.1594 -0.0244,-0.4375 0.09359,-0.9938 l 0.93976,-4.430701 c 0.03488,-0.1645 0.05232,-0.2467 0.04404,-0.3254 -0.0073,-0.0696 -0.0292,-0.1369 -0.0642,-0.1976 -0.03955,-0.0685 -0.10199,-0.1248 -0.22686,-0.2373 l -3.36462,-3.0322 c -0.42241,-0.3807 -0.63362,-0.571 -0.65988,-0.749 -0.0228,-0.1546387 0.02801,-0.3110387 0.13735,-0.4227287 0.12588,-0.12859 0.40863,-0.15843 0.97413,-0.21811 l 4.50429,-0.47541 c 0.16718,-0.01764 0.25076,-0.02646 0.32304,-0.05866 0.06395,-0.02848 0.12121,-0.07009 0.16807,-0.12211 0.05295,-0.05879 0.08717,-0.13556 0.15562,-0.2891 z"
     stroke="#000000"
     stroke-width="2"
     stroke-linecap="round"
     stroke-linejoin="round"
     id="path1-7-0"
     style="stroke:#e0e0e0;stroke-opacity:1" />
  <path
     style="fill:#e0e0e0;fill-rule:evenodd;stroke:#e0e0e0;stroke-width:68.5305;stroke-linecap:square"
     d="m 1054.2373,625.26234 c 0,-1.23539 6.5719,-33.16632 14.6043,-70.95764 12.1463,-57.14736 14.4638,-70.46189 13.7699,-79.11204 -1.5382,-19.17546 -4.5796,-22.79322 -64.3432,-76.53635 -29.63867,-26.65292 -53.31038,-48.96243 -52.60381,-49.57668 0.70656,-0.61426 18.06432,-2.8371 38.57281,-4.93968 96.3039,-9.87328 106.4119,-11.26364 115.5492,-15.89391 14.9553,-7.57839 18.2421,-13.12309 49.9519,-84.26539 16.1778,-36.29549 29.7955,-65.98933 30.2616,-65.98631 0.4661,0.003 14.0795,29.69432 30.252,65.98067 31.7044,71.13518 34.9962,76.68756 49.9615,84.27103 9.1373,4.63027 19.2453,6.02063 115.5492,15.89391 20.5085,2.10258 37.8611,4.32032 38.5615,4.92832 0.7003,0.60802 -23.0068,22.98251 -52.6824,49.72109 -59.7446,53.83156 -62.7272,57.37806 -64.2533,76.4033 -0.6942,8.65385 1.6354,22.02024 13.8712,79.58837 8.088,38.05329 14.4692,69.77643 14.1805,70.49583 -0.2887,0.71943 -27.9826,-14.58047 -61.5419,-33.99977 -33.5593,-19.41929 -64.7783,-36.46021 -69.3754,-37.86872 -10.3386,-3.16759 -18.4935,-3.24418 -28.3872,-0.26661 -5.9286,1.78424 -109.7314,60.05768 -128.0849,71.90505 -3.0578,1.9739 -3.8135,2.01661 -3.8135,0.21553 z"
     id="path2"
     transform="scale(0.03)" />
  <path
     style="fill:#e0e0e0;fill-rule:evenodd;stroke:#e0e0e0;stroke-width:68.5305;stroke-linecap:square"
     d="m 1854.2373,625.26234 c 0,-1.23539 6.5719,-33.16632 14.6043,-70.95764 12.1463,-57.14736 14.4638,-70.46189 13.7699,-79.11204 -1.5382,-19.17546 -4.5796,-22.79322 -64.3432,-76.53635 -29.6387,-26.65292 -53.3104,-48.96243 -52.6038,-49.57668 0.7066,-0.61426 18.0643,-2.8371 38.5728,-4.93968 96.3039,-9.87328 106.4119,-11.26364 115.5492,-15.89391 14.9553,-7.57839 18.2421,-13.12309 49.9519,-84.26539 16.1778,-36.29549 29.7955,-65.98933 30.2616,-65.98631 0.4661,0.003 14.0795,29.69432 30.252,65.98067 31.7044,71.13518 34.9962,76.68756 49.9615,84.27103 9.1373,4.63027 19.2453,6.02063 115.5492,15.89391 20.5085,2.10258 37.8611,4.32032 38.5615,4.92832 0.7003,0.60802 -23.0068,22.98251 -52.6824,49.72109 -59.7446,53.83156 -62.7272,57.37806 -64.2533,76.4033 -0.6942,8.65385 1.6354,22.02024 13.8712,79.58837 8.088,38.05329 14.4693,69.77643 14.1805,70.49583 -0.2887,0.71943 -27.9826,-14.58047 -61.5419,-33.99977 -33.5593,-19.41929 -64.7783,-36.46021 -69.3754,-37.86872 -10.3386,-3.16759 -18.4935,-3.24418 -28.3872,-0.26661 -5.9286,1.78424 -109.7314,60.05768 -128.0849,71.90505 -3.0578,1.9739 -3.8135,2.01661 -3.8135,0.21553 z"
     id="path3"
     transform="scale(0.03)" />
  <path
     style="fill:#e0e0e0;fill-rule:evenodd;stroke:#e0e0e0;stroke-width:68.5305;stroke-linecap:square"
     d="m 254.23729,625.26234 c 0,-1.23539 6.57192,-33.16632 14.60427,-70.95764 12.14638,-57.14736 14.46386,-70.46189 13.76996,-79.11204 -1.53821,-19.17546 -4.57963,-22.79322 -64.34323,-76.53635 -29.63866,-26.65292 -53.31037,-48.96243 -52.6038,-49.57668 0.70656,-0.61426 18.06432,-2.8371 38.5728,-4.93968 96.30389,-9.87328 106.41187,-11.26364 115.54926,-15.89391 14.95525,-7.57839 18.24209,-13.12309 49.95189,-84.26539 C 385.9162,207.68516 399.5339,177.99132 400,177.99434 c 0.4661,0.003 14.07951,29.69432 30.25203,65.98067 31.70434,71.13518 34.99616,76.68756 49.96143,84.27103 9.13739,4.63027 19.24535,6.02063 115.54925,15.89391 20.50848,2.10258 37.86114,4.32032 38.56146,4.92832 0.70032,0.60802 -23.00676,22.98251 -52.68241,49.72109 -59.74461,53.83156 -62.72712,57.37806 -64.25329,76.4033 -0.69418,8.65385 1.63539,22.02024 13.87121,79.58837 8.08803,38.05329 14.46927,69.77643 14.18054,70.49583 -0.28873,0.71943 -27.98259,-14.58047 -61.54191,-33.99977 -33.55933,-19.41929 -64.77828,-36.46021 -69.37543,-37.86872 -10.33857,-3.16759 -18.49347,-3.24418 -28.3872,-0.26661 -5.92858,1.78424 -109.73136,60.05768 -128.08483,71.90505 -3.0579,1.9739 -3.81356,2.01661 -3.81356,0.21553 z"
     id="path4"
     transform="scale(0.03)" />
  <path
     style="fill:#e0e0e0;fill-rule:evenodd;stroke:#e0e0e0;stroke-width:68.5305;stroke-linecap:square"
     d="m 2654.2373,625.26234 c 0,-1.23539 6.5719,-33.16632 14.6043,-70.95764 12.1463,-57.14736 14.4638,-70.46189 13.7699,-79.11204 -1.5382,-19.17546 -4.5796,-22.79322 -64.3432,-76.53635 -29.6387,-26.65292 -53.3104,-48.96243 -52.6038,-49.57668 0.7066,-0.61426 18.0643,-2.8371 38.5728,-4.93968 96.3039,-9.87328 106.4119,-11.26364 115.5492,-15.89391 14.9553,-7.57839 18.2421,-13.12309 49.9519,-84.26539 16.1778,-36.29549 29.7955,-65.98933 30.2616,-65.98631 0.4661,0.003 14.0795,29.69432 30.252,65.98067 31.7044,71.13518 34.9962,76.68756 49.9615,84.27103 9.1373,4.63027 19.2453,6.02063 115.5492,15.89391 20.5085,2.10258 37.8611,4.32032 38.5615,4.92832 0.7003,0.60802 -23.0068,22.98251 -52.6824,49.72109 -59.7446,53.83156 -62.7272,57.37806 -64.2533,76.4033 -0.6942,8.65385 1.6354,22.02024 13.8712,79.58837 8.088,38.05329 14.4693,69.77643 14.1805,70.49583 -0.2887,0.71943 -27.9826,-14.58047 -61.5419,-33.99977 -33.5593,-19.41929 -64.7783,-36.46021 -69.3754,-37.86872 -10.3386,-3.16759 -18.4935,-3.24418 -28.3872,-0.26661 -5.9286,1.78424 -109.7314,60.05768 -128.0849,71.90505 -3.0578,1.9739 -3.8135,2.01661 -3.8135,0.21553 z"
     id="path5"
     transform="scale(0.03)" />
  <path
     style="fill:#e0e0e0;fill-rule:evenodd;stroke:#e0e0e0;stroke-width:68.5305;stroke-linecap:square"
     d="m 3454.2373,625.26234 c 0,-1.23539 6.5719,-33.16632 14.6043,-70.95764 12.1463,-57.14736 14.4638,-70.46189 13.7699,-79.11204 -1.5382,-19.17546 -4.5796,-22.79322 -64.3432,-76.53635 -29.6387,-26.65292 -53.3104,-48.96243 -52.6038,-49.57668 0.7066,-0.61426 18.0643,-2.8371 38.5728,-4.93968 96.3039,-9.87328 106.4119,-11.26364 115.5492,-15.89391 14.9553,-7.57839 18.2421,-13.12309 49.9519,-84.26539 16.1778,-36.29549 29.7955,-65.98933 30.2616,-65.98631 0.4661,0.003 14.0795,29.69432 30.252,65.98067 31.7044,71.13518 34.9962,76.68756 49.9615,84.27103 9.1373,4.63027 19.2453,6.02063 115.5492,15.89391 20.5085,2.10258 37.8611,4.32032 38.5615,4.92832 0.7003,0.60802 -23.0068,22.98251 -52.6824,49.72109 -59.7446,53.83156 -62.7272,57.37806 -64.2533,76.4033 -0.6942,8.65385 1.6354,22.02024 13.8712,79.58837 8.088,38.05329 14.4693,69.77643 14.1805,70.49583 -0.2887,0.71943 -27.9826,-14.58047 -61.5419,-33.99977 -33.5593,-19.41929 -64.7783,-36.46021 -69.3754,-37.86872 -10.3386,-3.16759 -18.4935,-3.24418 -28.3872,-0.26661 -5.9286,1.78424 -109.7314,60.05768 -128.0849,71.90505 -3.0578,1.9739 -3.8135,2.01661 -3.8135,0.21553 z"
     id="path6"
     transform="scale(0.03)" />
</svg>
